<svg width="158" height="116" viewBox="0 0 158 116" fill="none" xmlns="http://www.w3.org/2000/svg">
<path d="M61.72 37.53L47.47 3.43C47.2 2.76418 46.7522 2.18539 46.1755 1.75684C45.5988 1.32829 44.9154 1.06648 44.2 1.00001C43.4869 0.931206 42.7688 1.0622 42.1259 1.37833C41.4831 1.69446 40.9409 2.18325 40.56 2.79C39.44 4.52 19.3 36.27 17.76 65.79H4.07001C3.03036 65.79 2.03328 66.203 1.29814 66.9381C0.562999 67.6733 0.149994 68.6704 0.149994 69.71C0.149994 70.7497 0.562999 71.7467 1.29814 72.4819C2.03328 73.217 3.03036 73.63 4.07001 73.63H17.82C18.1814 79.9755 19.9037 86.1689 22.87 91.79L23.45 92.79L8.92999 99.66C8.1302 100.046 7.48455 100.691 7.09821 101.49C6.71186 102.289 6.60761 103.196 6.80243 104.062C6.99725 104.929 7.47966 105.703 8.17107 106.26C8.86248 106.817 9.72214 107.124 10.61 107.13C11.191 107.127 11.7642 106.997 12.29 106.75L28.22 99.21C38.27 110.07 55.29 115.57 79 115.57C102.71 115.57 119.73 110.07 129.78 99.21L145.71 106.75C146.236 106.997 146.809 107.127 147.39 107.13C148.278 107.124 149.138 106.817 149.829 106.26C150.52 105.703 151.003 104.929 151.198 104.062C151.392 103.196 151.288 102.289 150.902 101.49C150.515 100.691 149.87 100.046 149.07 99.66L134.55 92.79L135.13 91.79C138.101 86.1708 139.824 79.9763 140.18 73.63H153.93C154.97 73.63 155.967 73.217 156.702 72.4819C157.437 71.7467 157.85 70.7497 157.85 69.71C157.85 68.6704 157.437 67.6733 156.702 66.9381C155.967 66.203 154.97 65.79 153.93 65.79H140.24C138.7 36.23 118.56 4.48 117.44 2.79C117.054 2.18966 116.511 1.70615 115.87 1.39162C115.23 1.0771 114.515 0.943493 113.804 1.00524C113.093 1.06699 112.412 1.32175 111.835 1.74201C111.258 2.16227 110.807 2.73209 110.53 3.39001L96.28 37.49H61.72V37.53ZM80 45.37H98.88C99.6536 45.3692 100.41 45.1401 101.054 44.7114C101.698 44.2826 102.201 43.6734 102.5 42.96L114.72 13.71C120.61 24.36 131.22 46.07 132.4 65.87H116.05C115.01 65.87 114.013 66.283 113.278 67.0182C112.543 67.7533 112.13 68.7504 112.13 69.79C112.13 70.8296 112.543 71.8267 113.278 72.5619C114.013 73.297 115.01 73.71 116.05 73.71H132.33C131.988 78.745 130.598 83.653 128.25 88.12C127.99 88.6 127.71 89.06 127.43 89.52L113.37 82.87C112.424 82.4231 111.34 82.3701 110.356 82.7227C109.371 83.0753 108.567 83.8045 108.12 84.75C107.673 85.6955 107.62 86.7798 107.973 87.7644C108.325 88.7489 109.055 89.5531 110 90L122.23 95.79C113.44 103.79 98.96 107.88 78.98 107.88C59 107.88 44.52 103.82 35.73 95.79L48 90C48.4877 89.7947 48.9288 89.4928 49.2968 89.1125C49.6647 88.7322 49.9518 88.2813 50.1408 87.7871C50.3298 87.2928 50.4168 86.7654 50.3965 86.2366C50.3762 85.7079 50.2491 85.1887 50.0228 84.7104C49.7964 84.232 49.4756 83.8045 49.0796 83.4535C48.6836 83.1025 48.2207 82.8353 47.7187 82.668C47.2166 82.5007 46.6859 82.4368 46.1586 82.4801C45.6312 82.5234 45.118 82.6731 44.65 82.92L30.59 89.57C30.31 89.11 30.03 88.65 29.77 88.17C27.4218 83.703 26.0321 78.795 25.69 73.76H41.96C42.9997 73.76 43.9967 73.347 44.7319 72.6119C45.467 71.8767 45.88 70.8797 45.88 69.84C45.88 68.8004 45.467 67.8033 44.7319 67.0682C43.9967 66.333 42.9997 65.92 41.96 65.92H25.59C26.77 46.12 37.38 24.41 43.27 13.76L55.49 43C55.7892 43.7134 56.2923 44.3226 56.9363 44.7514C57.5802 45.1801 58.3364 45.4092 59.11 45.41H80V45.37Z" fill="#FFB258"/>
</svg>
