<svg width="46" height="40" viewBox="0 0 46 40" fill="none" xmlns="http://www.w3.org/2000/svg">
<path fill-rule="evenodd" clip-rule="evenodd" d="M16.4497 11.9277C19.4699 11.9277 21.9182 9.59324 21.9182 6.71356C21.9182 3.83388 19.4699 1.49944 16.4497 1.49944C13.4295 1.49944 10.9812 3.83388 10.9812 6.71356C10.9812 9.59324 13.4295 11.9277 16.4497 11.9277ZM7.60911 22.8291C10.7697 22.8291 13.3319 20.4378 13.3319 17.4879C13.3319 14.538 10.7697 12.1466 7.60911 12.1466C4.44852 12.1466 1.88635 14.538 1.88635 17.4879C1.88635 20.4378 4.44852 22.8291 7.60911 22.8291ZM35.2496 34.8384C29.1252 39.2732 17.5104 39.0615 11.1744 34.6267C10.4285 34.0467 11.0164 33.4665 12.057 32.4395C13.6678 30.8496 16.3636 28.189 16.8764 22.8003C21.5228 22.1671 26.1692 22.3779 29.7592 22.8003C30.035 28.8682 32.8323 31.6043 34.3874 33.1253C35.2137 33.9335 35.6893 34.3987 35.2496 34.8384ZM44.2131 20.3692C44.2131 23.5298 41.7079 26.0919 38.6175 26.0919C35.5271 26.0919 33.0219 23.5298 33.0219 20.3692C33.0219 17.2086 35.5271 14.6464 38.6175 14.6464C41.7079 14.6464 44.2131 17.2086 44.2131 20.3692ZM35.6794 9.16998C35.9163 12.1808 33.6677 14.8137 30.6568 15.0507C27.646 15.2876 25.0131 13.0389 24.7761 10.0281C24.5392 7.01724 26.7878 4.38436 29.7987 4.1474C32.8096 3.91044 35.4424 6.15913 35.6794 9.16998Z" fill="#F8C100"/>
<path d="M11.1744 34.6267L10.5614 35.4149L10.5812 35.4304L10.6018 35.4448L11.1744 34.6267ZM35.2496 34.8384L35.8352 35.6471L35.8995 35.6006L35.9557 35.5444L35.2496 34.8384ZM12.057 32.4395L11.3555 31.7288L11.3555 31.7288L12.057 32.4395ZM16.8764 22.8003L16.7415 21.8109L15.9573 21.9178L15.8823 22.7057L16.8764 22.8003ZM29.7592 22.8003L30.7567 22.755L30.7182 21.9078L29.8759 21.8086L29.7592 22.8003ZM34.3874 33.1253L33.6892 33.8392L33.6892 33.8392L34.3874 33.1253ZM30.6568 15.0507L30.7351 16.0461L30.7351 16.0461L30.6568 15.0507ZM35.6794 9.16998L36.6748 9.09164L36.6748 9.09164L35.6794 9.16998ZM24.7761 10.0281L25.7716 9.94975L25.7716 9.94975L24.7761 10.0281ZM29.7987 4.1474L29.7204 3.15196L29.7204 3.15196L29.7987 4.1474ZM20.9197 6.71356C20.9197 8.99749 18.9637 10.9292 16.4497 10.9292V12.9262C19.976 12.9262 22.9167 10.189 22.9167 6.71356H20.9197ZM16.4497 2.49795C18.9637 2.49795 20.9197 4.42963 20.9197 6.71356H22.9167C22.9167 3.23812 19.976 0.500916 16.4497 0.500916V2.49795ZM11.9797 6.71356C11.9797 4.42963 13.9356 2.49795 16.4497 2.49795V0.500916C12.9234 0.500916 9.98269 3.23812 9.98269 6.71356H11.9797ZM16.4497 10.9292C13.9356 10.9292 11.9797 8.99749 11.9797 6.71356H9.98269C9.98269 10.189 12.9234 12.9262 16.4497 12.9262V10.9292ZM12.3333 17.4879C12.3333 19.8226 10.2842 21.8306 7.60911 21.8306V23.8277C11.2552 23.8277 14.3304 21.053 14.3304 17.4879H12.3333ZM7.60911 13.1451C10.2842 13.1451 12.3333 15.1532 12.3333 17.4879H14.3304C14.3304 13.9228 11.2552 11.1481 7.60911 11.1481V13.1451ZM2.88487 17.4879C2.88487 15.1532 4.93398 13.1451 7.60911 13.1451V11.1481C3.96305 11.1481 0.887834 13.9228 0.887834 17.4879H2.88487ZM7.60911 21.8306C4.93398 21.8306 2.88487 19.8226 2.88487 17.4879H0.887834C0.887834 21.053 3.96305 23.8277 7.60911 23.8277V21.8306ZM10.6018 35.4448C13.9784 37.8082 18.6789 39.0025 23.2795 39.0571C27.8761 39.1116 32.5447 38.0298 35.8352 35.6471L34.664 34.0296C31.83 36.0817 27.6291 37.1115 23.3032 37.0602C18.9812 37.009 14.7064 35.8801 11.7469 33.8087L10.6018 35.4448ZM11.3555 31.7288C11.101 31.98 10.8487 32.2287 10.6378 32.4597C10.4318 32.6853 10.2159 32.9464 10.064 33.2322C9.90751 33.5267 9.77361 33.9344 9.87619 34.3997C9.97775 34.8603 10.2695 35.188 10.5614 35.4149L11.7874 33.8385C11.7063 33.7755 11.7919 33.8131 11.8264 33.9697C11.8619 34.131 11.8002 34.2207 11.8275 34.1693C11.8595 34.1091 11.939 33.9964 12.1126 33.8062C12.2812 33.6215 12.4926 33.4125 12.7584 33.1502L11.3555 31.7288ZM15.8823 22.7057C15.4038 27.7346 12.9206 30.1842 11.3555 31.7288L12.7584 33.1502C14.415 31.5151 17.3234 28.6434 17.8704 22.8949L15.8823 22.7057ZM29.8759 21.8086C26.2329 21.38 21.4972 21.1629 16.7415 21.8109L17.0112 23.7897C21.5484 23.1714 26.1055 23.3758 29.6425 23.792L29.8759 21.8086ZM35.0856 32.4115C34.3146 31.6573 33.3153 30.676 32.4616 29.1744C31.6125 27.6809 30.8876 25.6338 30.7567 22.755L28.7617 22.8457C28.9067 26.0348 29.7183 28.3897 30.7256 30.1614C31.7283 31.9251 32.9052 33.0723 33.6892 33.8392L35.0856 32.4115ZM35.9557 35.5444C36.1989 35.3012 36.3987 34.9626 36.4144 34.5355C36.4289 34.1412 36.2794 33.8177 36.1441 33.5975C35.8962 33.1938 35.4564 32.7741 35.0856 32.4115L33.6892 33.8392C33.9004 34.0457 34.0681 34.21 34.2042 34.3551C34.3438 34.504 34.4121 34.5933 34.4424 34.6426C34.4743 34.6946 34.4129 34.6204 34.4187 34.4622C34.4257 34.2712 34.5202 34.1557 34.5435 34.1323L35.9557 35.5444ZM38.6175 27.0905C42.2804 27.0905 45.2116 24.06 45.2116 20.3692H43.2146C43.2146 22.9996 41.1354 25.0934 38.6175 25.0934V27.0905ZM32.0233 20.3692C32.0233 24.06 34.9546 27.0905 38.6175 27.0905V25.0934C36.0996 25.0934 34.0204 22.9996 34.0204 20.3692H32.0233ZM38.6175 13.6479C34.9546 13.6479 32.0233 16.6784 32.0233 20.3692H34.0204C34.0204 17.7388 36.0996 15.645 38.6175 15.645V13.6479ZM45.2116 20.3692C45.2116 16.6784 42.2804 13.6479 38.6175 13.6479V15.645C41.1354 15.645 43.2146 17.7388 43.2146 20.3692H45.2116ZM30.7351 16.0461C34.2958 15.7659 36.9551 12.6523 36.6748 9.09164L34.6839 9.24833C34.8776 11.7094 33.0395 13.8615 30.5785 14.0552L30.7351 16.0461ZM23.7807 10.1064C24.0609 13.6671 27.1745 16.3263 30.7351 16.0461L30.5785 14.0552C28.1174 14.2489 25.9653 12.4108 25.7716 9.94975L23.7807 10.1064ZM29.7204 3.15196C26.1597 3.43219 23.5005 6.54581 23.7807 10.1064L25.7716 9.94975C25.5779 7.48866 27.416 5.33653 29.877 5.14284L29.7204 3.15196ZM36.6748 9.09164C36.3946 5.53102 33.281 2.87173 29.7204 3.15196L29.877 5.14284C32.3381 4.94915 34.4903 6.78724 34.6839 9.24833L36.6748 9.09164Z" fill="black"/>
</svg>
